<?xml version="1.0" encoding="utf-8"?>
<!-- Generator: Adobe Illustrator 22.0.1, SVG Export Plug-In . SVG Version: 6.00 Build 0)  -->
<svg version="1.1" id="Ebene_1" xmlns="http://www.w3.org/2000/svg" xmlns:xlink="http://www.w3.org/1999/xlink" x="0px" y="0px"
	 viewBox="0 0 103.2 160.5" style="enable-background:new 0 0 103.2 160.5;" xml:space="preserve">
<g>
	<polygon points="35.3,5.2 27,5.2 35.3,41 	"/>
	<path d="M77,158l19.4-13.1c-3.9-5-7.9-10.3-11.8-15.3c-6.9-8.8-14.2-17.8-21.3-26.5l32.9-38.3L79.1,51.4L59.5,75.1L49,88.3
		l10.8,46.4L77,158z"/>
	<path d="M44.5,105.8l-9.7,12.2V63.9l-8.3-35.8H13.4V76l21.2,73.1v-25.6c2.6,3.9,5.2,8,8,12c3.4,4.7,6.9,9.2,10.3,13.6l2.3,3.1
		L44.5,105.8z"/>
	<polygon points="25.8,154.1 25.8,132.8 4.6,59.8 4.6,154.1 	"/>
</g>
</svg>
