<?xml version="1.0" encoding="utf-8"?>
<!-- Generator: Adobe Illustrator 22.0.1, SVG Export Plug-In . SVG Version: 6.00 Build 0)  -->
<svg version="1.1" id="Ebene_1" xmlns="http://www.w3.org/2000/svg" xmlns:xlink="http://www.w3.org/1999/xlink" x="0px" y="0px"
	 viewBox="0 0 407.6 217" style="enable-background:new 0 0 407.6 217;" xml:space="preserve">
<g>
	<polygon points="339.6,5.2 331.3,5.2 339.6,41 	"/>
	<path d="M381.3,158l19.4-13.1c-3.9-5-7.9-10.3-11.8-15.3c-6.9-8.8-14.2-17.8-21.3-26.5l32.9-38.3l-17.2-13.3l-19.6,23.7l-10.5,13.2
		l10.8,46.4L381.3,158z"/>
	<path d="M348.9,105.8l-9.7,12.2V63.9l-8.3-35.8h-13.1V76l21.2,73.1v-25.6c2.6,3.9,5.2,8,8,12c3.4,4.7,6.9,9.2,10.3,13.6l2.3,3.1
		L348.9,105.8z"/>
	<polygon points="330.1,154.1 330.1,132.8 308.9,59.8 308.9,154.1 	"/>
</g>
<g>
	<path d="M11.9,134.3v60.2H5.4v-60.2H11.9z M32.3,196l-20.4-22.2l20.6-21.2l4.4,4c-4.4,3.6-5.3,4.9-9.1,9c-2.5,2.6-5.1,5.2-7.7,7.8
		c0.9,1,1.7,2,2.5,2.9c2.2,2.5,4.5,4.9,6.8,7.4c2.6,2.9,5.2,5.7,7.8,8.6L32.3,196z"/>
	<path d="M49.1,173.6c0,1,0.1,1.8,0.2,2.8c0.1,1.7,0.2,7.6,4.6,11.5c2.7,2.4,5.6,2.6,6.9,2.6c4.6,0,7.8-2.6,11.3-5.5l2.9,3.3
		c-0.7,0.6-1.5,1.4-2.3,2c-5.2,4.4-9.5,4.9-12.6,4.9c-11.3,0-17.5-9.8-17.5-20.3c0-1.4,0.1-4.9,1.4-8.6c2.5-7.4,9-12.9,16.9-12.9
		c9.8,0,13.2,8,14.1,11.1c0.8,2.9,0.9,5.8,1,9H49.1z M69.8,169.6c-0.3-3.9-0.8-7.6-4-9.9c-1.4-1.1-3.2-1.6-4.9-1.6
		c-4.1,0-7.7,2.8-9.7,6.5c-1,2.1-1.5,4.4-1.7,5H69.8z"/>
	<path d="M118.1,154.7c-2.4,5.9-4.7,11.8-7,17.7c-2.6,6.7-5.2,13.4-7.9,19.9c-1.8,4.4-3.7,8.7-5.7,13c-0.2,0.3-1,2-1.9,3.2
		c-3.4,4.4-8.4,4.6-10.2,4.6c-1,0-2-0.1-2.9-0.2v-4.2c2.1-0.1,3.2-0.2,4.1-0.3c3-0.7,4.3-2.7,5.7-5.5l4-9.5l-14.2-38.6l6.1-1.6
		c1.7,4.8,3.4,9.5,5.1,14.2c1.4,3.7,2.8,7.5,4.1,11.3c1,2.9,1.8,5.9,2.6,8.8c1-3.8,2.1-7.6,3.4-11.1c1.6-4.4,3.3-8.5,4.9-12.8
		c1.3-3.4,2.5-6.8,3.7-10.3L118.1,154.7z"/>
	<path d="M148.5,163.3c-2.7-2.7-4.9-4.8-8.7-4.8c-1,0-3,0.2-5.2,1.6c-2.9,1.8-6.8,6.4-6.8,14.8c0,1.4,0.1,6.2,2.5,10.1
		c0.8,1.3,3.9,5.6,9.1,5.6c0.6,0,1.6-0.1,2.9-0.5c2.8-0.9,4.5-2.5,6.4-4.5l3.2,3.3c-0.9,0.8-1.7,1.6-2.5,2.3
		c-1.7,1.4-4.9,4.2-10.4,4.2c-1.4,0-4.4-0.2-7.7-1.9c-9.4-4.8-10.2-15.3-10.2-18.5c0-3.7,0.9-6.5,1.3-7.8
		c2.6-7.6,9.3-13.8,17.5-13.8c5.2,0,8.5,2.3,10,3.6c1.4,1.3,2.5,2.8,2.9,3.3L148.5,163.3z"/>
	<path d="M166.8,154.5v27.6c0.1,3.3,0.3,5.8,3,7.5c0.6,0.3,1.8,1,3.5,1c0.8,0,2-0.2,3.7-1c2.5-1.1,4.4-2.7,8.1-6.7v-28.5h6.4v40.2
		h-6.1v-6.8c-1,1-2,2-3,2.9c-1.5,1.4-5.3,4.8-11.1,4.8c-4,0-8.5-1.9-10.1-5.8c-0.6-1.5-0.8-2.7-1-6v-29.3H166.8z"/>
	<path d="M206.3,154.5l0.2-15h6.4v14.9H223v4.5h-10.3l-0.4,24.2c0,0.4-0.6,6.8,4.1,6.8c2.1,0,4.2-1.1,6-2l1.9,3.9
		c-3,1.7-5.9,3.3-9.5,3.3c-1.7,0-2.9-0.4-3.5-0.6c-1.1-0.4-3.8-1.7-4.8-4.8c-0.6-1.6-0.6-3.3-0.6-5.1l0.2-25.7h-5.6v-4.4H206.3z"/>
	<path d="M252.4,160.8c-2.6-1.4-4.8-2.5-7.9-2.5c-0.4,0-1.7,0-3,0.5c-3.9,1.3-4.6,4.5-4.6,6c0,0.9,0.2,1.8,0.6,2.5
		c1,2.1,3.3,3.2,7.6,4.9c0.7,0.2,4.9,1.7,7.3,4.1c1,1,2.9,3.5,2.9,7.2c0,1-0.1,2.9-1.2,5.1c-1.5,2.9-4.9,6.8-12.3,6.8
		c-4.8,0-7.7-1.4-11.9-3.4l2.6-4.5c2.9,1.9,5.4,3.2,8.7,3.2c0.6,0,2.1,0,3.7-0.7c3.3-1.4,4-4.3,4-5.6c0-2.3-1.4-3.7-1.9-4.3
		c-0.2-0.1-0.8-0.6-1.5-1c-3.2-1.8-6.9-2.6-9.9-4.5c-4.3-2.8-5-7-5-9.1c0-0.7,0.2-2.8,1-4.7c1.3-2.7,4.7-7,12.3-7
		c5.4,0,9.5,2.3,11.1,3.1L252.4,160.8z"/>
</g>
</svg>
